<svg width="30" height="30" viewBox="0 0 30 30" fill="none" xmlns="http://www.w3.org/2000/svg">
<path d="M28.7584 5.09625C28.4068 4.6743 27.9666 4.33494 27.4691 4.10227C26.9716 3.8696 26.4289 3.74933 25.8797 3.75H5.66969L5.61719 3.31125C5.50975 2.39927 5.07142 1.55842 4.3853 0.948097C3.69918 0.337779 2.81297 0.000427242 1.89469 0H1.61719C1.28567 0 0.967725 0.131696 0.733304 0.366117C0.498884 0.600537 0.367188 0.918479 0.367188 1.25C0.367188 1.58152 0.498884 1.89946 0.733304 2.13388C0.967725 2.3683 1.28567 2.5 1.61719 2.5H1.89469C2.20085 2.50004 2.49636 2.61245 2.72515 2.81589C2.95395 3.01934 3.10012 3.29969 3.13594 3.60375L4.85594 18.2288C5.0345 19.7497 5.76528 21.1522 6.90957 22.17C8.05386 23.1878 9.53201 23.75 11.0634 23.75H24.1172C24.4487 23.75 24.7667 23.6183 25.0011 23.3839C25.2355 23.1495 25.3672 22.8315 25.3672 22.5C25.3672 22.1685 25.2355 21.8505 25.0011 21.6161C24.7667 21.3817 24.4487 21.25 24.1172 21.25H11.0634C10.2898 21.2478 9.53569 21.0064 8.90461 20.5588C8.27353 20.1113 7.79633 19.4794 7.53844 18.75H22.4384C23.9038 18.7501 25.3226 18.2353 26.447 17.2955C27.5713 16.3558 28.3297 15.0509 28.5897 13.6087L29.5709 8.16625C29.6689 7.62626 29.6469 7.07133 29.5065 6.5408C29.3661 6.01026 29.1107 5.5171 28.7584 5.09625Z" fill="#333333"/>
<path d="M28.7584 5.09625C28.4068 4.6743 27.9666 4.33494 27.4691 4.10227C26.9716 3.8696 26.4289 3.74933 25.8797 3.75H5.66969L5.61719 3.31125C5.50975 2.39927 5.07142 1.55842 4.3853 0.948097C3.69918 0.337779 2.81297 0.000427242 1.89469 0H1.61719C1.28567 0 0.967725 0.131696 0.733304 0.366117C0.498884 0.600537 0.367188 0.918479 0.367188 1.25C0.367188 1.58152 0.498884 1.89946 0.733304 2.13388C0.967725 2.3683 1.28567 2.5 1.61719 2.5H1.89469C2.20085 2.50004 2.49636 2.61245 2.72515 2.81589C2.95395 3.01934 3.10012 3.29969 3.13594 3.60375L4.85594 18.2288C5.0345 19.7497 5.76528 21.1522 6.90957 22.17C8.05386 23.1878 9.53201 23.75 11.0634 23.75H24.1172C24.4487 23.75 24.7667 23.6183 25.0011 23.3839C25.2355 23.1495 25.3672 22.8315 25.3672 22.5C25.3672 22.1685 25.2355 21.8505 25.0011 21.6161C24.7667 21.3817 24.4487 21.25 24.1172 21.25H11.0634C10.2898 21.2478 9.53569 21.0064 8.90461 20.5588C8.27353 20.1113 7.79633 19.4794 7.53844 18.75H22.4384C23.9038 18.7501 25.3226 18.2353 26.447 17.2955C27.5713 16.3558 28.3297 15.0509 28.5897 13.6087L29.5709 8.16625C29.6689 7.62626 29.6469 7.07133 29.5065 6.5408C29.3661 6.01026 29.1107 5.5171 28.7584 5.09625Z" fill="url(#paint0_linear_722_952)"/>
<path d="M9.11719 30C10.4979 30 11.6172 28.8807 11.6172 27.5C11.6172 26.1193 10.4979 25 9.11719 25C7.73648 25 6.61719 26.1193 6.61719 27.5C6.61719 28.8807 7.73648 30 9.11719 30Z" fill="#333333"/>
<path d="M9.11719 30C10.4979 30 11.6172 28.8807 11.6172 27.5C11.6172 26.1193 10.4979 25 9.11719 25C7.73648 25 6.61719 26.1193 6.61719 27.5C6.61719 28.8807 7.73648 30 9.11719 30Z" fill="url(#paint1_linear_722_952)"/>
<path d="M21.6172 30C22.9979 30 24.1172 28.8807 24.1172 27.5C24.1172 26.1193 22.9979 25 21.6172 25C20.2365 25 19.1172 26.1193 19.1172 27.5C19.1172 28.8807 20.2365 30 21.6172 30Z" fill="#333333"/>
<path d="M21.6172 30C22.9979 30 24.1172 28.8807 24.1172 27.5C24.1172 26.1193 22.9979 25 21.6172 25C20.2365 25 19.1172 26.1193 19.1172 27.5C19.1172 28.8807 20.2365 30 21.6172 30Z" fill="url(#paint2_linear_722_952)"/>
<defs>
<linearGradient id="paint0_linear_722_952" x1="0.507326" y1="15" x2="28.1488" y2="15" gradientUnits="userSpaceOnUse">
<stop stop-color="#7116F2"/>
<stop offset="1" stop-color="#43AEFF"/>
</linearGradient>
<linearGradient id="paint1_linear_722_952" x1="0.507326" y1="15" x2="28.1488" y2="15" gradientUnits="userSpaceOnUse">
<stop stop-color="#7116F2"/>
<stop offset="1" stop-color="#43AEFF"/>
</linearGradient>
<linearGradient id="paint2_linear_722_952" x1="0.507326" y1="15" x2="28.1488" y2="15" gradientUnits="userSpaceOnUse">
<stop stop-color="#7116F2"/>
<stop offset="1" stop-color="#43AEFF"/>
</linearGradient>
</defs>
</svg>
