<svg width="31" height="27" viewBox="0 0 31 27" fill="none" xmlns="http://www.w3.org/2000/svg">
<path d="M27.324 10.4692L27.3269 10.4725C27.7765 11.0003 28.112 11.6233 28.3084 12.3C28.5048 12.9766 28.557 13.6893 28.4611 14.3892C28.461 14.3894 28.461 14.3896 28.461 14.3899L27.5809 20.7838C27.5808 20.7849 27.5806 20.7859 27.5805 20.7869C27.4124 21.9641 26.8387 23.0332 25.9728 23.8036C25.1079 24.5731 24.0084 24.9945 22.8751 25H11.5059V6.89245L13.3894 2.98258L13.39 2.98132C13.6388 2.46356 14.0565 2.0636 14.5586 1.84535C15.0598 1.62749 15.6182 1.60187 16.1349 1.77184C16.6524 1.94206 17.1019 2.3002 17.3943 2.79086C17.6871 3.28232 17.7998 3.86973 17.7071 4.44428L17.7069 4.44538L17.287 7.05836L17.0077 8.79636H18.768L23.7533 8.79636L23.7536 8.79636C24.4273 8.79622 25.0942 8.94429 25.7097 9.23189C26.3254 9.51955 26.8764 9.94073 27.324 10.4692ZM2.9136 23.5751C2.01908 22.6587 1.50957 21.4089 1.50781 20.0979V13.6985C1.50957 12.3874 2.01908 11.1376 2.9136 10.2213C3.74678 9.36777 4.84963 8.86836 6.00637 8.80356V24.9928C4.84963 24.928 3.74678 24.4286 2.9136 23.5751Z" stroke="#999999" stroke-width="3"/>
</svg>
