<svg width="28" height="16" viewBox="0 0 28 16" fill="none" xmlns="http://www.w3.org/2000/svg">
<path d="M21.4785 15.2037L25.8874 10.7948C26.6033 10.0446 27.0027 9.04743 27.0027 8.01043C27.0027 6.97343 26.6033 5.97628 25.8874 5.22606L21.4785 0.817182C21.1621 0.500613 20.7329 0.322707 20.2853 0.322601C19.8377 0.322496 19.4084 0.5002 19.0918 0.81662C18.7752 1.13304 18.5973 1.56226 18.5972 2.00985C18.5971 2.45744 18.7748 2.88674 19.0913 3.20331L22.2188 6.33193L1.6875 6.35781C1.23995 6.35781 0.810725 6.5356 0.494257 6.85206C0.17779 7.16853 0 7.59775 0 8.04531C0 8.49286 0.17779 8.92208 0.494257 9.23855C0.810725 9.55502 1.23995 9.73281 1.6875 9.73281L22.1974 9.70693L19.0913 12.8176C18.7839 13.1358 18.6138 13.5621 18.6176 14.0045C18.6215 14.447 18.7989 14.8703 19.1118 15.1831C19.4247 15.496 19.8479 15.6735 20.2904 15.6773C20.7328 15.6812 21.1591 15.5111 21.4774 15.2037H21.4785Z" fill="#999999"/>
</svg>
