<svg width="34" height="26" viewBox="0 0 34 26" fill="none" xmlns="http://www.w3.org/2000/svg">
<path d="M25.7539 1.5H8.25391C6.59691 1.50198 5.00835 2.1611 3.83668 3.33277C2.66501 4.50445 2.00589 6.09301 2.00391 7.75H32.0039C32.0019 6.09301 31.3428 4.50445 30.1711 3.33277C28.9995 2.1611 27.4109 1.50198 25.7539 1.5Z" stroke="#999999" stroke-width="3"/>
<path d="M2.00391 17.75C2.00589 19.407 2.66501 20.9956 3.83668 22.1672C5.00835 23.3389 6.59691 23.998 8.25391 24H25.7539C27.4109 23.998 28.9995 23.3389 30.1711 22.1672C31.3428 20.9956 32.0019 19.407 32.0039 17.75V10.25H2.00391V17.75ZM10.7539 17.125C10.7539 17.4958 10.6439 17.8584 10.4379 18.1667C10.2319 18.475 9.93905 18.7154 9.59644 18.8573C9.25383 18.9992 8.87683 19.0363 8.51311 18.964C8.1494 18.8916 7.8153 18.713 7.55308 18.4508C7.29086 18.1886 7.11228 17.8545 7.03993 17.4908C6.96759 17.1271 7.00472 16.7501 7.14663 16.4075C7.28855 16.0649 7.52887 15.772 7.83721 15.566C8.14555 15.36 8.50807 15.25 8.87891 15.25C9.37619 15.25 9.8531 15.4475 10.2047 15.7992C10.5564 16.1508 10.7539 16.6277 10.7539 17.125Z" stroke="#999999" stroke-width="3"/>
</svg>
