<svg width="27" height="27" viewBox="0 0 27 27" fill="none" xmlns="http://www.w3.org/2000/svg">
<path d="M15.9037 10.2548V13.7404H19.0287C19.269 13.7404 19.3892 13.9808 19.3892 14.2211L18.9085 16.5048C18.9085 16.625 18.6681 16.7452 18.5479 16.7452H15.9037V25.5192H12.2979V16.8654H10.2546C10.0142 16.8654 9.89404 16.7452 9.89404 16.5048V14.2211C9.89404 13.9808 10.0142 13.8606 10.2546 13.8606H12.2979V9.89422C12.2979 7.85095 13.8604 6.28845 15.9037 6.28845H19.1489C19.3892 6.28845 19.5094 6.40864 19.5094 6.64903V9.53364C19.5094 9.77403 19.3892 9.89422 19.1489 9.89422H16.2642C16.0239 9.89422 15.9037 10.0144 15.9037 10.2548Z" stroke="#7116F2" stroke-width="2" stroke-miterlimit="10" stroke-linecap="round"/>
<path d="M17.106 25.5192H9.89442C3.8848 25.5192 1.48096 23.1153 1.48096 17.1057V9.89417C1.48096 3.88456 3.8848 1.48071 9.89442 1.48071H17.106C23.1156 1.48071 25.5194 3.88456 25.5194 9.89417V17.1057C25.5194 23.1153 23.1156 25.5192 17.106 25.5192Z" stroke="#7116F2" stroke-width="2" stroke-linecap="round" stroke-linejoin="round"/>
</svg>
