<svg width="25" height="25" viewBox="0 0 25 25" fill="none" xmlns="http://www.w3.org/2000/svg">
<path d="M12.5043 18.0449C15.5644 18.0449 18.0451 15.5641 18.0451 12.504C18.0451 9.44387 15.5644 6.96313 12.5043 6.96313C9.44411 6.96313 6.96338 9.44387 6.96338 12.504C6.96338 15.5641 9.44411 18.0449 12.5043 18.0449Z" stroke="#7116F2" stroke-width="2" stroke-miterlimit="10"/>
<path d="M19.0137 6.50687C19.3977 6.50687 19.709 6.19556 19.709 5.81154C19.709 5.42752 19.3977 5.11621 19.0137 5.11621C18.6297 5.11621 18.3184 5.42752 18.3184 5.81154C18.3184 6.19556 18.6297 6.50687 19.0137 6.50687Z" stroke="#7116F2" stroke-width="2" stroke-miterlimit="10"/>
<path d="M18.0616 1H6.93842C3.65872 1 1 3.65872 1 6.93842V18.0616C1 21.3413 3.65872 24 6.93842 24H18.0616C21.3413 24 24 21.3413 24 18.0616V6.93842C24 3.65872 21.3413 1 18.0616 1Z" stroke="#7116F2" stroke-width="2" stroke-miterlimit="10"/>
</svg>
