<svg width="29" height="27" viewBox="0 0 29 27" fill="none" xmlns="http://www.w3.org/2000/svg">
<path d="M6.56175 9.56836H3.55379C2.95885 9.56836 2.47656 10.0507 2.47656 10.6456V24.0944C2.47656 24.6893 2.95885 25.1716 3.55379 25.1716H6.56175C7.15668 25.1716 7.63898 24.6893 7.63898 24.0944V10.6456C7.63898 10.0507 7.15668 9.56836 6.56175 9.56836Z" stroke="#7116F2" stroke-width="2" stroke-miterlimit="10"/>
<path d="M26.7059 13.5539V13.645C26.684 13.4541 26.6451 13.2656 26.5898 13.0815C26.6661 13.2273 26.7059 13.3894 26.7059 13.5539V13.5539Z" stroke="#7116F2" stroke-width="2" stroke-miterlimit="10"/>
<path d="M26.7058 13.67V24.0942C26.7058 24.2357 26.6779 24.3758 26.6238 24.5065C26.5696 24.6372 26.4903 24.7559 26.3902 24.856C26.2902 24.956 26.1715 25.0353 26.0408 25.0895C25.9101 25.1436 25.77 25.1715 25.6285 25.1715H22.5874C22.3075 25.1628 22.042 25.0456 21.8471 24.8445C21.6521 24.6434 21.5432 24.3743 21.5433 24.0942C21.5433 24.0942 21.5433 18.6501 21.5433 15.8576C21.5547 15.1699 21.2968 14.5049 20.8245 14.0048C20.3523 13.5047 19.7033 13.2091 19.016 13.1811V13.1811C18.5802 13.1812 18.1479 13.2598 17.7399 13.4131C17.2112 13.6283 16.7598 13.9983 16.4449 14.4744C16.13 14.9505 15.9661 15.5105 15.9749 16.0813V24.0942C15.9752 24.29 15.9221 24.4822 15.8214 24.6501C15.7207 24.818 15.576 24.9553 15.4031 25.0472C15.2941 25.1096 15.1722 25.1465 15.0468 25.1549C14.9974 25.1631 14.9471 25.1631 14.8977 25.1549H11.8814C11.5972 25.1527 11.3253 25.0383 11.1251 24.8365C10.9248 24.6347 10.8125 24.362 10.8125 24.0777V10.6454C10.8125 10.3612 10.9248 10.0884 11.1251 9.88665C11.3253 9.68487 11.5972 9.57041 11.8814 9.56823H14.8977C15.1834 9.56823 15.4574 9.68173 15.6594 9.88375C15.8614 10.0858 15.9749 10.3597 15.9749 10.6454V11.4078C15.9749 11.7558 17.5245 8.92189 20.6401 8.92189H21.2202C22.4613 8.91899 23.6678 9.33079 24.6482 10.0919C25.6285 10.8531 26.3265 11.92 26.6312 13.1231C26.6716 13.3029 26.6965 13.4859 26.7058 13.67Z" stroke="#7116F2" stroke-width="2" stroke-miterlimit="10"/>
<path d="M5.06161 7.34734C6.58556 7.34734 7.82097 6.11193 7.82097 4.58798C7.82097 3.06402 6.58556 1.82861 5.06161 1.82861C3.53766 1.82861 2.30225 3.06402 2.30225 4.58798C2.30225 6.11193 3.53766 7.34734 5.06161 7.34734Z" stroke="#7116F2" stroke-width="2" stroke-miterlimit="10"/>
</svg>
