<svg width="23" height="22" viewBox="0 0 23 22" fill="none" xmlns="http://www.w3.org/2000/svg">
<path fill-rule="evenodd" clip-rule="evenodd" d="M9.79835 0C4.66824 0 0.50946 4.15878 0.50946 9.28889C0.50946 14.419 4.66824 18.5778 9.79835 18.5778C11.8341 18.5778 13.7169 17.9229 15.2476 16.8123L20.0057 21.5704C20.5785 22.1432 21.5071 22.1432 22.0799 21.5704C22.6527 20.9977 22.6527 20.069 22.0799 19.4962L17.3218 14.7381C18.4324 13.2075 19.0872 11.3246 19.0872 9.28889C19.0872 4.15878 14.9285 0 9.79835 0ZM3.44279 9.28889C3.44279 5.77881 6.28827 2.93333 9.79835 2.93333C13.3084 2.93333 16.1539 5.77881 16.1539 9.28889C16.1539 12.799 13.3084 15.6444 9.79835 15.6444C6.28827 15.6444 3.44279 12.799 3.44279 9.28889Z" fill="white"/>
</svg>
