<svg width="15" height="17" viewBox="0 0 15 17" fill="none" xmlns="http://www.w3.org/2000/svg">
<path d="M13.4405 3.4804H11.3795C11.0614 1.93372 9.70084 0.823055 8.12178 0.82106H6.79209C5.21303 0.823055 3.85247 1.93372 3.5344 3.4804H1.47342C1.10624 3.4804 0.808594 3.77805 0.808594 4.14522C0.808594 4.5124 1.10624 4.81008 1.47342 4.81008H2.13825V13.4529C2.14046 15.2879 3.62746 16.775 5.46244 16.7771H9.45146C11.2864 16.775 12.7734 15.2879 12.7757 13.4529V4.81008H13.4405C13.8077 4.81008 14.1053 4.51243 14.1053 4.14525C14.1053 3.77808 13.8077 3.4804 13.4405 3.4804ZM6.79212 12.1233C6.79212 12.4905 6.49448 12.7881 6.1273 12.7881C5.76009 12.7881 5.46244 12.4905 5.46244 12.1233V8.13428C5.46244 7.7671 5.76009 7.46945 6.12727 7.46945C6.49444 7.46945 6.79209 7.7671 6.79209 8.13428L6.79212 12.1233ZM9.45146 12.1233C9.45146 12.4905 9.15381 12.7881 8.78664 12.7881C8.41946 12.7881 8.12181 12.4905 8.12181 12.1233V8.13428C8.12181 7.7671 8.41946 7.46945 8.78664 7.46945C9.15381 7.46945 9.45146 7.7671 9.45146 8.13428V12.1233ZM4.9113 3.4804C5.19409 2.68412 5.94714 2.15174 6.79212 2.15071H8.12181C8.9668 2.15174 9.71985 2.68412 10.0026 3.4804H4.9113Z" fill="#7116F2"/>
</svg>
