<svg width="22" height="22" viewBox="0 0 22 22" fill="none" xmlns="http://www.w3.org/2000/svg">
<path fill-rule="evenodd" clip-rule="evenodd" d="M0.568863 0.76015C0.767013 0.174987 1.40201 -0.138748 1.98718 0.0594023C3.10906 0.439299 3.91051 0.961231 4.45759 1.69068C4.76881 2.10564 4.96667 2.54927 5.10619 2.98331H19.7619C21.1798 2.98331 22.2401 4.2854 21.9528 5.67385L20.8874 10.8234C20.5291 12.5549 19.0041 13.7967 17.2359 13.7967H7.99015C7.99185 13.903 7.99413 14.0068 7.99842 14.1127C8.01356 14.4869 8.05182 14.7848 8.13194 15.0182C8.20506 15.2312 8.30047 15.3559 8.43014 15.4429C8.57088 15.5373 8.86368 15.6611 9.45876 15.6611H9.47479H9.49085H9.50693H9.52303H9.53916H9.5553H9.57147H9.58766H9.60388H9.62011H9.63637H9.65265H9.66895H9.68527H9.70162H9.71798H9.73436H9.75077H9.7672H9.78364H9.80011H9.81659H9.8331H9.84963H9.86617H9.88274H9.89932H9.91592H9.93254H9.94919H9.96585H9.98252H9.99922H10.0159H10.0327H10.0494H10.0662H10.083H10.0998H10.1166H10.1334H10.1503H10.1672H10.184H10.201H10.2179H10.2348H10.2518H10.2687H10.2857H10.3027H10.3197H10.3368H10.3538H10.3709H10.3879H10.405H10.4221H10.4393H10.4564H10.4735H10.4907H10.5079H10.5251H10.5423H10.5595H10.5767H10.594H10.6112H10.6285H10.6458H10.6631H10.6804H10.6977H10.715H10.7324H10.7497H10.7671H10.7844H10.8018H10.8192H10.8366H10.8541H10.8715H10.8889H10.9064H10.9238H10.9413H10.9588H10.9763H10.9938H11.0113H11.0288H11.0463H11.0639H11.0814H11.099H11.1165H11.1341H11.1517H11.1692H11.1868H11.2044H11.222H11.2397H11.2573H11.2749H11.2926H11.3102H11.3278H11.3455H11.3632H11.3808H11.3985H11.4162H11.4339H11.4516H11.4693H11.487H11.5047H11.5224H11.5401H11.5578H11.5756H11.5933H11.611H11.6288H11.6465H11.6642H11.682H11.6997H11.7175H11.7353H11.753H11.7708H11.7886H11.8063H11.8241H11.8419H11.8596H11.8774H11.8952H11.913H11.9308H11.9486H11.9663H11.9841H12.0019H12.0197H12.0375H12.0553H12.0731H12.0909H12.1086H12.1264H12.1442H12.162H12.1798H12.1976H12.2154H12.2331H12.2509H12.2687H12.2865H12.3043H12.322H12.3398H12.3576H12.3753H12.3931H12.4109H12.4286H12.4464H12.4641H12.4819H12.4996H12.5174H12.5351H12.5529H12.5706H12.5883H12.606H12.6237H12.6415H12.6592H12.6769H12.6946H12.7123H12.7299H12.7476H12.7653H12.783H12.8006H12.8183H12.8359H12.8536H12.8712H12.8889H12.9065H12.9241H12.9417H12.9593H12.9769H12.9945H13.0121H13.0296H13.0472H13.0648H13.0823H13.0998H13.1174H13.1349H13.1524H13.1699H13.1874H13.2049H13.2223H13.2398H13.2572H13.2747H13.2921H13.3095H13.3269H13.3443H13.3617H13.3791H13.3965H13.4138H13.4312H13.4485H13.4658H13.4831H13.5004H13.5177H13.535H13.5522H13.5695H13.5867H13.6039H13.6211H13.6383H13.6555H13.6726H13.6898H13.7069H13.7241H13.7412H13.7583H13.7753H13.7924H13.8094H13.8265H13.8435H13.8605H13.8775H13.8944H13.9114H13.9283H13.9453H13.9622H13.9791H13.9959H14.0128H14.0296H14.0465H14.0633H14.08H14.0968H14.1136H14.1303H14.147H14.1637H14.1804H14.1971H14.2137H14.2303H14.2469H14.2635H14.2801H14.2966H14.3132H14.3297H14.3462H14.3626H14.3791H14.3955H14.4119H14.4283H14.4447H14.461H14.4773H14.4936H14.5099H14.5262H14.5424H14.5586H14.5748H14.591H14.6071H14.6233H14.6394H14.6555H14.6715H14.6876H14.7036H14.7196H14.7355H14.7515H14.7674H14.7833H14.7991H14.815H14.8308H14.8466H14.8624H14.8781H14.8938H14.9095H14.9252H14.9409H14.9565H14.9721H14.9876H15.0032H15.0187H15.0342H15.0497H15.0651H15.0805H15.0959H15.1112H15.1266H15.1419H15.1571H15.1724H15.1876H15.2028H15.218H15.2331H15.2482H15.2633H15.2783H15.2933H15.3083H15.3233H15.3382H15.3531H15.368H15.3828H15.3976H15.4124H15.4272H15.4419H15.4566H15.4712H15.4858H15.5004H15.515H15.5295H15.544H15.5585H15.5729H15.5873H15.6017H15.6161H15.6304H15.6446H15.6589H15.6731H15.6873H15.7014H15.7155H15.7296H15.7436H15.7576H15.7716H15.7856H15.7995H15.8133H15.8272H15.841H15.8547H15.8685H15.8822H15.8958H15.9094H15.923H15.9366H15.9501H15.9636H15.977H15.9904H16.0038H16.0171H16.0304H16.0437H16.0569H16.0701H16.0833H16.0964H16.1094H16.1225H16.1355H16.1484H16.1613H16.1742H16.1871H16.1999H16.2126H16.2254H16.238H16.2507H16.2633H16.2759H16.2884H16.3009H16.3133H16.3257H16.3381H16.3504H16.3627H16.3749H16.3871H16.3993H16.4114H16.4235H16.4355H16.4475H16.4595H16.4714H16.4832H16.4951H16.5068H16.5186H16.5303H16.5419H16.5535H16.5651H16.5766H16.5881H16.5995H16.6109H16.6222H16.6335H16.6448H16.656H16.6672H16.6783H16.6894H16.7004H16.7114H16.7223H16.7332H16.7441H16.7549H16.7656H16.7763H16.787H16.7976H16.8082H16.8187H16.8291H16.8396H16.8499H16.8603H16.8706H16.8808H16.891H16.9011H16.9112H16.9212H16.9312H16.9412H16.9511H16.9609H16.9707H16.9805H16.9902H16.9998H17.0094H17.0189H17.0284H17.0379H17.0473H17.0566H17.0659H17.0752H17.0844H17.0935H17.1026H17.1116H17.1206H17.1295H17.1384H17.1472H17.156H17.1647H17.1734H17.182H17.1906H17.1991H17.2076H17.216H17.2243H17.2326H17.2409H17.2491H17.2572H17.2653H17.2733H17.2813H17.2892C17.907 15.6611 18.4078 16.1619 18.4078 16.7797C18.4078 17.3975 17.907 17.8984 17.2892 17.8984H17.2813H17.2733H17.2653H17.2572H17.2491H17.2409H17.2326H17.2243H17.216H17.2076H17.1991H17.1906H17.182H17.1734H17.1647H17.156H17.1472H17.1384H17.1295H17.1206H17.1116H17.1026H17.0935H17.0844H17.0752H17.0659H17.0566H17.0473H17.0379H17.0284H17.0189H17.0094H16.9998H16.9902H16.9805H16.9707H16.9609H16.9511H16.9412H16.9312H16.9212H16.9112H16.9011H16.891H16.8808H16.8706H16.8603H16.8499H16.8396H16.8291H16.8187H16.8082H16.7976H16.787H16.7763H16.7656H16.7549H16.7441H16.7332H16.7223H16.7114H16.7004H16.6894H16.6783H16.6672H16.656H16.6448H16.6335H16.6222H16.6109H16.5995H16.5881H16.5766H16.5651H16.5535H16.5419H16.5303H16.5186H16.5068H16.4951H16.4832H16.4714H16.4595H16.4475H16.4355H16.4235H16.4114H16.3993H16.3871H16.3749H16.3627H16.3504H16.3381H16.3257H16.3133H16.3009H16.2884H16.2759H16.2633H16.2507H16.238H16.2254H16.2126H16.1999H16.1871H16.1742H16.1613H16.1484H16.1355H16.1225H16.1094H16.0964H16.0833H16.0701H16.0569H16.0437H16.0304H16.0171H16.0038H15.9904H15.977H15.9636H15.9501H15.9366H15.923H15.9094H15.8958H15.8822H15.8685H15.8547H15.841H15.8272H15.8133H15.7995H15.7856H15.7716H15.7576H15.7436H15.7296H15.7155H15.7014H15.6873H15.6731H15.6589H15.6446H15.6304H15.6161H15.6017H15.5873H15.5729H15.5585H15.544H15.5295H15.515H15.5004H15.4858H15.4712H15.4566H15.4419H15.4272H15.4124H15.3976H15.3828H15.368H15.3531H15.3382H15.3233H15.3083H15.2933H15.2783H15.2633H15.2482H15.2331H15.218H15.2028H15.1876H15.1724H15.1571H15.1419H15.1266H15.1112H15.0959H15.0805H15.0651H15.0497H15.0342H15.0187H15.0032H14.9876H14.9721H14.9565H14.9409H14.9252H14.9095H14.8938H14.8781H14.8624H14.8466H14.8308H14.815H14.7991H14.7833H14.7674H14.7515H14.7355H14.7196H14.7036H14.6876H14.6715H14.6555H14.6394H14.6233H14.6071H14.591H14.5748H14.5586H14.5424H14.5262H14.5099H14.4936H14.4773H14.461H14.4447H14.4283H14.4119H14.3955H14.3791H14.3626H14.3462H14.3297H14.3132H14.2966H14.2801H14.2635H14.2469H14.2303H14.2137H14.1971H14.1804H14.1637H14.147H14.1303H14.1136H14.0968H14.08H14.0633H14.0465H14.0296H14.0128H13.9959H13.9791H13.9622H13.9453H13.9283H13.9114H13.8944H13.8775H13.8605H13.8435H13.8265H13.8094H13.7924H13.7753H13.7583H13.7412H13.7241H13.7069H13.6898H13.6726H13.6555H13.6383H13.6211H13.6039H13.5867H13.5695H13.5522H13.535H13.5177H13.5004H13.4831H13.4658H13.4485H13.4312H13.4138H13.3965H13.3791H13.3617H13.3443H13.3269H13.3095H13.2921H13.2747H13.2572H13.2398H13.2223H13.2049H13.1874H13.1699H13.1524H13.1349H13.1174H13.0998H13.0823H13.0648H13.0472H13.0296H13.0121H12.9945H12.9769H12.9593H12.9417H12.9241H12.9065H12.8889H12.8712H12.8536H12.8359H12.8183H12.8006H12.783H12.7653H12.7476H12.7299H12.7123H12.6946H12.6769H12.6592H12.6415H12.6237H12.606H12.5883H12.5706H12.5529H12.5351H12.5174H12.4996H12.4819H12.4641H12.4464H12.4286H12.4109H12.3931H12.3753H12.3576H12.3398H12.322H12.3043H12.2865H12.2687H12.2509H12.2331H12.2154H12.1976H12.1798H12.162H12.1442H12.1264H12.1086H12.0909H12.0731H12.0553H12.0375H12.0197H12.0019H11.9841H11.9663H11.9486H11.9308H11.913H11.8952H11.8774H11.8596H11.8419H11.8241H11.8063H11.7886H11.7708H11.753H11.7353H11.7175H11.6997H11.682H11.6642H11.6465H11.6288H11.611H11.5933H11.5756H11.5578H11.5401H11.5224H11.5047H11.487H11.4693H11.4516H11.4339H11.4162H11.3985H11.3808H11.3632H11.3455H11.3278H11.3102H11.2926H11.2749H11.2573H11.2397H11.222H11.2044H11.1868H11.1692H11.1517H11.1341H11.1165H11.099H11.0814H11.0639H11.0463H11.0288H11.0113H10.9938H10.9763H10.9588H10.9413H10.9238H10.9064H10.8889H10.8715H10.8541H10.8366H10.8192H10.8018H10.7844H10.7671H10.7497H10.7324H10.715H10.6977H10.6804H10.6631H10.6458H10.6285H10.6112H10.594H10.5767H10.5595H10.5423H10.5251H10.5079H10.4907H10.4735H10.4564H10.4393H10.4221H10.405H10.3879H10.3709H10.3538H10.3368H10.3197H10.3027H10.2857H10.2687H10.2518H10.2348H10.2179H10.201H10.184H10.1672H10.1503H10.1334H10.1166H10.0998H10.083H10.0662H10.0494H10.0327H10.0159H9.99922H9.98252H9.96585H9.94919H9.93254H9.91592H9.89932H9.88274H9.86617H9.84963H9.8331H9.81659H9.80011H9.78364H9.7672H9.75077H9.73436H9.71798H9.70162H9.68527H9.66895H9.65265H9.63637H9.62011H9.60388H9.58766H9.57147H9.5553H9.53916H9.52303H9.50693H9.49085H9.47479H9.45876C8.56234 17.8984 7.79609 17.7115 7.18397 17.3009C6.56078 16.883 6.20952 16.3086 6.01593 15.7447C5.82934 15.2012 5.78086 14.6446 5.76299 14.2032C5.75732 14.0632 5.75454 13.9244 5.75261 13.7967H5.53843C4.79344 13.7967 4.1627 13.247 4.06091 12.509L3.05561 5.22057L2.77672 3.19865C2.74299 3.13998 2.70688 3.08515 2.66779 3.03303C2.46912 2.76814 2.10533 2.46146 1.26961 2.17846C0.684448 1.98031 0.370712 1.34531 0.568863 0.76015ZM5.31405 5.22057L6.18838 11.5595H17.2359C17.9432 11.5595 18.5532 11.0627 18.6965 10.3702L19.7619 5.22057H5.31405ZM16.1706 19.7627C15.9646 19.7627 15.7977 19.9297 15.7977 20.1356C15.7977 20.3416 15.9646 20.5085 16.1706 20.5085C16.3765 20.5085 16.5434 20.3416 16.5434 20.1356C16.5434 19.9297 16.3765 19.7627 16.1706 19.7627ZM16.1706 22C17.2002 22 18.0349 21.1653 18.0349 20.1356C18.0349 19.106 17.2002 18.2712 16.1706 18.2712C15.1409 18.2712 14.3062 19.106 14.3062 20.1356C14.3062 21.1653 15.1409 22 16.1706 22ZM9.08592 20.1356C9.08592 19.9297 9.25286 19.7627 9.45879 19.7627C9.66473 19.7627 9.83167 19.9297 9.83167 20.1356C9.83167 20.3416 9.66473 20.5085 9.45879 20.5085C9.25286 20.5085 9.08592 20.3416 9.08592 20.1356ZM11.3232 20.1356C11.3232 21.1653 10.4885 22 9.45879 22C8.42912 22 7.59441 21.1653 7.59441 20.1356C7.59441 19.106 8.42912 18.2712 9.45879 18.2712C10.4885 18.2712 11.3232 19.106 11.3232 20.1356Z" fill="white"/>
</svg>
